<svg xmlns="http://www.w3.org/2000/svg">
    <symbol id="print" viewBox="0 0 32 32">
        <path d="M16 0H4V4H16V0ZM17 9C16.7348 9 16.4804 8.89464 16.2929 8.70711C16.1054 8.51957 16 8.26522 16 8C16 7.73478 16.1054 7.48043 16.2929 7.29289C16.4804 7.10536 16.7348 7 17 7C17.2652 7 17.5196 7.10536 17.7071 7.29289C17.8946 7.48043 18 7.73478 18 8C18 8.26522 17.8946 8.51957 17.7071 8.70711C17.5196 8.89464 17.2652 9 17 9ZM14 16H6V11H14V16ZM17 5H3C2.20435 5 1.44129 5.31607 0.87868 5.87868C0.316071 6.44129 0 7.20435 0 8V14H4V18H16V14H20V8C20 7.20435 19.6839 6.44129 19.1213 5.87868C18.5587 5.31607 17.7956 5 17 5Z"
              fill="currentColor"/>
    </symbol>

    <symbol id="create-new" viewBox="0 0 17 16">
        <path d="M12.2836 8.8H9.08358V12H7.48358V8.8H4.28358V7.2H7.48358V4H9.08358V7.2H12.2836V8.8ZM8.28358 0C7.23301 0 6.19272 0.206926 5.22212 0.608964C4.25151 1.011 3.3696 1.60028 2.62673 2.34315C1.12644 3.84344 0.283585 5.87827 0.283585 8C0.283585 10.1217 1.12644 12.1566 2.62673 13.6569C3.3696 14.3997 4.25151 14.989 5.22212 15.391C6.19272 15.7931 7.23301 16 8.28358 16C10.4053 16 12.4401 15.1571 13.9404 13.6569C15.4407 12.1566 16.2836 10.1217 16.2836 8C16.2836 6.94943 16.0767 5.90914 15.6746 4.93853C15.2726 3.96793 14.6833 3.08601 13.9404 2.34315C13.1976 1.60028 12.3157 1.011 11.3451 0.608964C10.3744 0.206926 9.33416 0 8.28358 0Z"
              fill="currentColor"/>
    </symbol>

    <symbol viewBox="0 0 10 6" id="down">
        <path d="M1.42001 0L4.59001 3.17L7.76001 0L9.18001 1.41L4.59001 6L0.0100098 1.41L1.42001 0Z"
              fill="currentColor"/>
    </symbol>

    <symbol id="download" viewBox="0 0 8 11">
        <path d="M0 10.5714H8V9.42858H0V10.5714ZM8 4.28572H5.71429V0.857147H2.28571V4.28572H0L4 8.28572L8 4.28572Z"
              fill="currentColor"/>
    </symbol>

    <symbol id="even" viewBox="0 0 32 32">
        <path d="M11 -4.76837e-08V3.03C14.39 3.52 17 6.42 17 9.95C17 10.85 16.82 11.7 16.5 12.49L19.12 14.02C19.68 12.78 20 11.4 20 9.95C20 4.77 16.05 0.5 11 -4.76837e-08ZM10 16.95C8.14348 16.95 6.36301 16.2125 5.05025 14.8997C3.7375 13.587 3 11.8065 3 9.95C3 6.42 5.61 3.52 9 3.03V-4.76837e-08C3.94 0.5 0 4.76 0 9.95C0 12.6022 1.05357 15.1457 2.92893 17.0211C3.85752 17.9497 4.95991 18.6863 6.17317 19.1888C7.38642 19.6913 8.68678 19.95 10 19.95C13.3 19.95 16.23 18.34 18.05 15.86L15.45 14.33C14.17 15.95 12.21 16.95 10 16.95Z"
              fill="currentColor"/>
    </symbol>

    <symbol id="odd" viewBox="0 0 32 32">
        <path d="M19.78 4.76837e-08L24 4.22L8.44 19.8L0 11.35L4.22 7.13L8.44 11.35L19.78 4.76837e-08ZM19.78 2.8L8.44 14.16L4.22 9.99L2.81 11.35L8.44 16.97L21.19 4.22L19.78 2.8Z"
              fill="currentColor"/>
    </symbol>

    <symbol viewBox="0 0 10 6" id="up">
        <path d="M4.59 2.83L7.76 6L9.17 4.59L4.59 0L0 4.59L1.42 6L4.59 2.83Z" fill="currentColor"/>
    </symbol>
</svg>